<mxfile host="65bd71144e">
    <diagram id="Y1CyjDUYdALjf96n-0KP" name="PÃ¡gina-1">
        <mxGraphModel dx="991" dy="790" grid="1" gridSize="10" guides="1" tooltips="1" connect="1" arrows="1" fold="1" page="1" pageScale="1" pageWidth="827" pageHeight="1169" background="#ffffff" math="0" shadow="0">
            <root>
                <mxCell id="0"/>
                <mxCell id="1" parent="0"/>
                <mxCell id="4" value="" style="edgeStyle=none;html=1;fillColor=#0050ef;strokeColor=#001DBC;" edge="1" parent="1" source="2" target="3">
                    <mxGeometry relative="1" as="geometry"/>
                </mxCell>
                <mxCell id="2" value="41" style="ellipse;whiteSpace=wrap;html=1;aspect=fixed;fillColor=#2A2A2A;shadow=0;fontColor=#F0F0F0;" vertex="1" parent="1">
                    <mxGeometry x="244" y="40" width="40" height="40" as="geometry"/>
                </mxCell>
                <mxCell id="3" value="38&lt;br&gt;" style="ellipse;whiteSpace=wrap;html=1;aspect=fixed;fillColor=#a20025;fontColor=#ffffff;strokeColor=#6F0000;" vertex="1" parent="1">
                    <mxGeometry x="184" y="100" width="40" height="40" as="geometry"/>
                </mxCell>
                <mxCell id="5" value="41" style="ellipse;whiteSpace=wrap;html=1;aspect=fixed;fillColor=#2A2A2A;shadow=0;fontColor=#F0F0F0;" vertex="1" parent="1">
                    <mxGeometry x="84" y="40" width="40" height="40" as="geometry"/>
                </mxCell>
                <mxCell id="6" value="" style="edgeStyle=none;html=1;fillColor=#0050ef;strokeColor=#001DBC;" edge="1" parent="1" source="7" target="8">
                    <mxGeometry relative="1" as="geometry"/>
                </mxCell>
                <mxCell id="10" value="" style="edgeStyle=none;html=1;fillColor=#0050ef;strokeColor=#001DBC;" edge="1" parent="1" source="7" target="9">
                    <mxGeometry relative="1" as="geometry"/>
                </mxCell>
                <mxCell id="7" value="38" style="ellipse;whiteSpace=wrap;html=1;aspect=fixed;fillColor=#2A2A2A;shadow=0;fontColor=#F0F0F0;" vertex="1" parent="1">
                    <mxGeometry x="404" y="40" width="40" height="40" as="geometry"/>
                </mxCell>
                <mxCell id="8" value="31" style="ellipse;whiteSpace=wrap;html=1;aspect=fixed;fillColor=#a20025;fontColor=#ffffff;strokeColor=#6F0000;" vertex="1" parent="1">
                    <mxGeometry x="344" y="100" width="40" height="40" as="geometry"/>
                </mxCell>
                <mxCell id="9" value="41" style="ellipse;whiteSpace=wrap;html=1;aspect=fixed;fillColor=#a20025;fontColor=#ffffff;strokeColor=#6F0000;" vertex="1" parent="1">
                    <mxGeometry x="464" y="100" width="40" height="40" as="geometry"/>
                </mxCell>
                <mxCell id="11" value="" style="edgeStyle=none;html=1;fillColor=#0050ef;strokeColor=#001DBC;" edge="1" parent="1" source="13" target="14">
                    <mxGeometry relative="1" as="geometry"/>
                </mxCell>
                <mxCell id="12" value="" style="edgeStyle=none;html=1;fillColor=#0050ef;strokeColor=#001DBC;" edge="1" parent="1" source="13" target="15">
                    <mxGeometry relative="1" as="geometry"/>
                </mxCell>
                <mxCell id="13" value="38" style="ellipse;whiteSpace=wrap;html=1;aspect=fixed;fillColor=#2A2A2A;shadow=0;fontColor=#F0F0F0;" vertex="1" parent="1">
                    <mxGeometry x="644" y="40" width="40" height="40" as="geometry"/>
                </mxCell>
                <mxCell id="17" value="" style="edgeStyle=none;html=1;fillColor=#0050ef;strokeColor=#001DBC;" edge="1" parent="1" source="14" target="16">
                    <mxGeometry relative="1" as="geometry"/>
                </mxCell>
                <mxCell id="14" value="31" style="ellipse;whiteSpace=wrap;html=1;aspect=fixed;fillColor=#2A2A2A;shadow=0;fontColor=#F0F0F0;" vertex="1" parent="1">
                    <mxGeometry x="584" y="100" width="40" height="40" as="geometry"/>
                </mxCell>
                <mxCell id="15" value="41" style="ellipse;whiteSpace=wrap;html=1;aspect=fixed;fillColor=#2A2A2A;shadow=0;fontColor=#F0F0F0;" vertex="1" parent="1">
                    <mxGeometry x="704" y="100" width="40" height="40" as="geometry"/>
                </mxCell>
                <mxCell id="16" value="12" style="ellipse;whiteSpace=wrap;html=1;aspect=fixed;fillColor=#a20025;fontColor=#ffffff;strokeColor=#6F0000;" vertex="1" parent="1">
                    <mxGeometry x="544" y="160" width="40" height="40" as="geometry"/>
                </mxCell>
                <mxCell id="18" value="" style="edgeStyle=none;html=1;fillColor=#0050ef;strokeColor=#001DBC;" edge="1" parent="1" source="20" target="22">
                    <mxGeometry relative="1" as="geometry"/>
                </mxCell>
                <mxCell id="19" value="" style="edgeStyle=none;html=1;fillColor=#0050ef;strokeColor=#001DBC;" edge="1" parent="1" source="20" target="23">
                    <mxGeometry relative="1" as="geometry"/>
                </mxCell>
                <mxCell id="20" value="38" style="ellipse;whiteSpace=wrap;html=1;aspect=fixed;fillColor=#2A2A2A;shadow=0;fontColor=#F0F0F0;" vertex="1" parent="1">
                    <mxGeometry x="254" y="240" width="40" height="40" as="geometry"/>
                </mxCell>
                <mxCell id="21" value="" style="edgeStyle=none;html=1;" edge="1" parent="1" source="22" target="24">
                    <mxGeometry relative="1" as="geometry"/>
                </mxCell>
                <mxCell id="25" value="" style="edgeStyle=none;html=1;fillColor=#0050ef;strokeColor=#001DBC;" edge="1" parent="1" source="22" target="24">
                    <mxGeometry relative="1" as="geometry"/>
                </mxCell>
                <mxCell id="27" value="" style="edgeStyle=none;html=1;fillColor=#0050ef;strokeColor=#001DBC;" edge="1" parent="1" source="22" target="26">
                    <mxGeometry relative="1" as="geometry"/>
                </mxCell>
                <mxCell id="22" value="18" style="ellipse;whiteSpace=wrap;html=1;aspect=fixed;fillColor=#2A2A2A;shadow=0;fontColor=#F0F0F0;" vertex="1" parent="1">
                    <mxGeometry x="194" y="300" width="40" height="40" as="geometry"/>
                </mxCell>
                <mxCell id="23" value="41" style="ellipse;whiteSpace=wrap;html=1;aspect=fixed;fillColor=#2A2A2A;shadow=0;fontColor=#F0F0F0;" vertex="1" parent="1">
                    <mxGeometry x="314" y="300" width="40" height="40" as="geometry"/>
                </mxCell>
                <mxCell id="24" value="12" style="ellipse;whiteSpace=wrap;html=1;aspect=fixed;fillColor=#a20025;fontColor=#ffffff;strokeColor=#6F0000;" vertex="1" parent="1">
                    <mxGeometry x="154" y="360" width="40" height="40" as="geometry"/>
                </mxCell>
                <mxCell id="26" value="31" style="ellipse;whiteSpace=wrap;html=1;aspect=fixed;fillColor=#a20025;fontColor=#ffffff;strokeColor=#6F0000;" vertex="1" parent="1">
                    <mxGeometry x="234" y="360" width="40" height="40" as="geometry"/>
                </mxCell>
                <mxCell id="28" value="" style="edgeStyle=none;html=1;fillColor=#0050ef;strokeColor=#001DBC;" edge="1" parent="1" source="30" target="34">
                    <mxGeometry relative="1" as="geometry"/>
                </mxCell>
                <mxCell id="29" value="" style="edgeStyle=none;html=1;fillColor=#0050ef;strokeColor=#001DBC;" edge="1" parent="1" source="30" target="35">
                    <mxGeometry relative="1" as="geometry"/>
                </mxCell>
                <mxCell id="30" value="38" style="ellipse;whiteSpace=wrap;html=1;aspect=fixed;fillColor=#2A2A2A;shadow=0;fontColor=#F0F0F0;" vertex="1" parent="1">
                    <mxGeometry x="574" y="240" width="40" height="40" as="geometry"/>
                </mxCell>
                <mxCell id="31" value="" style="edgeStyle=none;html=1;" edge="1" parent="1" source="34" target="36">
                    <mxGeometry relative="1" as="geometry"/>
                </mxCell>
                <mxCell id="32" value="" style="edgeStyle=none;html=1;fillColor=#0050ef;strokeColor=#001DBC;" edge="1" parent="1" source="34" target="36">
                    <mxGeometry relative="1" as="geometry"/>
                </mxCell>
                <mxCell id="33" value="" style="edgeStyle=none;html=1;fillColor=#0050ef;strokeColor=#001DBC;" edge="1" parent="1" source="34" target="37">
                    <mxGeometry relative="1" as="geometry"/>
                </mxCell>
                <mxCell id="34" value="18" style="ellipse;whiteSpace=wrap;html=1;aspect=fixed;fillColor=#a20025;fontColor=#ffffff;strokeColor=#6F0000;" vertex="1" parent="1">
                    <mxGeometry x="514" y="300" width="40" height="40" as="geometry"/>
                </mxCell>
                <mxCell id="35" value="41" style="ellipse;whiteSpace=wrap;html=1;aspect=fixed;fillColor=#2A2A2A;shadow=0;fontColor=#F0F0F0;" vertex="1" parent="1">
                    <mxGeometry x="634" y="300" width="40" height="40" as="geometry"/>
                </mxCell>
                <mxCell id="39" value="" style="edgeStyle=none;html=1;fillColor=#0050ef;strokeColor=#001DBC;" edge="1" parent="1" source="36" target="38">
                    <mxGeometry relative="1" as="geometry"/>
                </mxCell>
                <mxCell id="36" value="12" style="ellipse;whiteSpace=wrap;html=1;aspect=fixed;fillColor=#2A2A2A;shadow=0;fontColor=#F0F0F0;" vertex="1" parent="1">
                    <mxGeometry x="474" y="360" width="40" height="40" as="geometry"/>
                </mxCell>
                <mxCell id="37" value="31" style="ellipse;whiteSpace=wrap;html=1;aspect=fixed;fillColor=#2A2A2A;shadow=0;fontColor=#F0F0F0;" vertex="1" parent="1">
                    <mxGeometry x="554" y="360" width="40" height="40" as="geometry"/>
                </mxCell>
                <mxCell id="38" value="8" style="ellipse;whiteSpace=wrap;html=1;aspect=fixed;fillColor=#a20025;fontColor=#ffffff;strokeColor=#6F0000;" vertex="1" parent="1">
                    <mxGeometry x="434" y="420" width="40" height="40" as="geometry"/>
                </mxCell>
                <mxCell id="45" value="" style="edgeStyle=none;html=1;fillColor=#0050ef;strokeColor=#001DBC;" edge="1" parent="1" source="47" target="51">
                    <mxGeometry relative="1" as="geometry"/>
                </mxCell>
                <mxCell id="46" value="" style="edgeStyle=none;html=1;fillColor=#0050ef;strokeColor=#001DBC;" edge="1" parent="1" source="47" target="52">
                    <mxGeometry relative="1" as="geometry"/>
                </mxCell>
                <mxCell id="47" value="38" style="ellipse;whiteSpace=wrap;html=1;aspect=fixed;fillColor=#2A2A2A;shadow=0;fontColor=#F0F0F0;" vertex="1" parent="1">
                    <mxGeometry x="200" y="520" width="40" height="40" as="geometry"/>
                </mxCell>
                <mxCell id="48" value="" style="edgeStyle=none;html=1;" edge="1" parent="1" source="51" target="54">
                    <mxGeometry relative="1" as="geometry"/>
                </mxCell>
                <mxCell id="49" value="" style="edgeStyle=none;html=1;fillColor=#0050ef;strokeColor=#001DBC;" edge="1" parent="1" source="51" target="54">
                    <mxGeometry relative="1" as="geometry"/>
                </mxCell>
                <mxCell id="50" value="" style="edgeStyle=none;html=1;fillColor=#0050ef;strokeColor=#001DBC;" edge="1" parent="1" source="51" target="55">
                    <mxGeometry relative="1" as="geometry"/>
                </mxCell>
                <mxCell id="51" value="18" style="ellipse;whiteSpace=wrap;html=1;aspect=fixed;fillColor=#a20025;fontColor=#ffffff;strokeColor=#6F0000;" vertex="1" parent="1">
                    <mxGeometry x="140" y="580" width="40" height="40" as="geometry"/>
                </mxCell>
                <mxCell id="52" value="41" style="ellipse;whiteSpace=wrap;html=1;aspect=fixed;fillColor=#2A2A2A;shadow=0;fontColor=#F0F0F0;" vertex="1" parent="1">
                    <mxGeometry x="260" y="580" width="40" height="40" as="geometry"/>
                </mxCell>
                <mxCell id="54" value="12" style="ellipse;whiteSpace=wrap;html=1;aspect=fixed;fillColor=#2A2A2A;shadow=0;fontColor=#F0F0F0;" vertex="1" parent="1">
                    <mxGeometry x="100" y="640" width="40" height="40" as="geometry"/>
                </mxCell>
                <mxCell id="55" value="31" style="ellipse;whiteSpace=wrap;html=1;aspect=fixed;fillColor=#2A2A2A;shadow=0;fontColor=#F0F0F0;" vertex="1" parent="1">
                    <mxGeometry x="180" y="640" width="40" height="40" as="geometry"/>
                </mxCell>
                <mxCell id="57" value="" style="edgeStyle=none;html=1;fillColor=#0050ef;strokeColor=#001DBC;" edge="1" parent="1" source="59" target="63">
                    <mxGeometry relative="1" as="geometry"/>
                </mxCell>
                <mxCell id="58" value="" style="edgeStyle=none;html=1;fillColor=#0050ef;strokeColor=#001DBC;" edge="1" parent="1" source="59" target="64">
                    <mxGeometry relative="1" as="geometry"/>
                </mxCell>
                <mxCell id="59" value="38" style="ellipse;whiteSpace=wrap;html=1;aspect=fixed;fillColor=#2A2A2A;shadow=0;fontColor=#F0F0F0;" vertex="1" parent="1">
                    <mxGeometry x="444" y="520" width="40" height="40" as="geometry"/>
                </mxCell>
                <mxCell id="62" value="" style="edgeStyle=none;html=1;fillColor=#0050ef;strokeColor=#001DBC;" edge="1" parent="1" source="63" target="66">
                    <mxGeometry relative="1" as="geometry"/>
                </mxCell>
                <mxCell id="63" value="18" style="ellipse;whiteSpace=wrap;html=1;aspect=fixed;fillColor=#2A2A2A;fontColor=#F0F0F0;" vertex="1" parent="1">
                    <mxGeometry x="384" y="580" width="40" height="40" as="geometry"/>
                </mxCell>
                <mxCell id="64" value="41" style="ellipse;whiteSpace=wrap;html=1;aspect=fixed;fillColor=#2A2A2A;shadow=0;fontColor=#F0F0F0;" vertex="1" parent="1">
                    <mxGeometry x="504" y="580" width="40" height="40" as="geometry"/>
                </mxCell>
                <mxCell id="66" value="31" style="ellipse;whiteSpace=wrap;html=1;aspect=fixed;fillColor=#a20025;shadow=0;fontColor=#ffffff;strokeColor=#6F0000;" vertex="1" parent="1">
                    <mxGeometry x="424" y="640" width="40" height="40" as="geometry"/>
                </mxCell>
                <mxCell id="67" value="" style="edgeStyle=none;html=1;fillColor=#0050ef;strokeColor=#001DBC;" edge="1" parent="1" source="69" target="72">
                    <mxGeometry relative="1" as="geometry"/>
                </mxCell>
                <mxCell id="68" value="" style="edgeStyle=none;html=1;fillColor=#0050ef;strokeColor=#001DBC;" edge="1" parent="1" source="69" target="73">
                    <mxGeometry relative="1" as="geometry"/>
                </mxCell>
                <mxCell id="69" value="38" style="ellipse;whiteSpace=wrap;html=1;aspect=fixed;fillColor=#2A2A2A;shadow=0;fontColor=#F0F0F0;" vertex="1" parent="1">
                    <mxGeometry x="638.45" y="520" width="40" height="40" as="geometry"/>
                </mxCell>
                <mxCell id="72" value="31" style="ellipse;whiteSpace=wrap;html=1;aspect=fixed;fillColor=#2A2A2A;fontColor=#F0F0F0;" vertex="1" parent="1">
                    <mxGeometry x="578.45" y="580" width="40" height="40" as="geometry"/>
                </mxCell>
                <mxCell id="73" value="41" style="ellipse;whiteSpace=wrap;html=1;aspect=fixed;fillColor=#2A2A2A;shadow=0;fontColor=#F0F0F0;" vertex="1" parent="1">
                    <mxGeometry x="698.45" y="580" width="40" height="40" as="geometry"/>
                </mxCell>
                <mxCell id="76" value="" style="edgeStyle=none;html=1;fillColor=#0050ef;strokeColor=#001DBC;" edge="1" parent="1" source="77" target="79">
                    <mxGeometry relative="1" as="geometry"/>
                </mxCell>
                <mxCell id="77" value="38" style="ellipse;whiteSpace=wrap;html=1;aspect=fixed;fillColor=#2A2A2A;shadow=0;fontColor=#F0F0F0;" vertex="1" parent="1">
                    <mxGeometry x="300.00000000000006" y="750" width="40" height="40" as="geometry"/>
                </mxCell>
                <mxCell id="79" value="41" style="ellipse;whiteSpace=wrap;html=1;aspect=fixed;fillColor=#a20025;shadow=0;fontColor=#ffffff;strokeColor=#6F0000;" vertex="1" parent="1">
                    <mxGeometry x="360.00000000000006" y="810" width="40" height="40" as="geometry"/>
                </mxCell>
                <mxCell id="80" value="41" style="ellipse;whiteSpace=wrap;html=1;aspect=fixed;shadow=0;fillColor=#2A2A2A;fontColor=#F0F0F0;" vertex="1" parent="1">
                    <mxGeometry x="480.00000000000006" y="750" width="40" height="40" as="geometry"/>
                </mxCell>
            </root>
        </mxGraphModel>
    </diagram>
</mxfile>